# xmcd CD database file
#
# Track frame offsets:
#	150
#	35898
#	60005
#	94914
#	154439
#	190715
#
# Disc length: 3352 seconds
#
# Revision: 0
# Processed by: cddbd v1.5.2PL0 Copyright (c) Steve Scherf et al.
# Submitted via: CDex 1.51
#
DISCID=480d1606
DTITLE=Daniel Namkhay - Amando Tudo
DYEAR=1900
DGENRE=New Age
TTITLE0=Sete direções
TTITLE1=Viagem pela mata
TTITLE2=Céu na Terra
TTITLE3=Viajando profundo pelo Mundo sentado aqui
TTITLE4=Fluindo nos rios do amor
TTITLE5=Amando tudo
EXTD=
EXTT0=
EXTT1=
EXTT2=
EXTT3=
EXTT4=
EXTT5=
PLAYORDER=
